<svg width="256" height="256" viewBox="0 0 256 256" fill="none" xmlns="http://www.w3.org/2000/svg">
  <!-- Background -->
  <rect width="256" height="256" rx="40" fill="#f0f0f0"/>
  <!-- Sidebar -->
  <rect x="0" y="0" width="76" height="256" rx="40" fill="#ffffff"/>
  <rect x="40" y="0" width="36" height="256" fill="#ffffff"/>
  <!-- Sidebar divider -->
  <line x1="76" y1="0" x2="76" y2="256" stroke="#e0e0e0" stroke-width="1"/>
  <!-- Profile 1 active -->
  <rect x="10" y="52" width="56" height="40" rx="10" fill="#f0f4ff"/>
  <circle cx="28" cy="72" r="11" fill="#4facfe"/>
  <!-- Profile 2 -->
  <circle cx="28" cy="128" r="11" fill="#43e97b"/>
  <!-- Profile 3 -->
  <circle cx="28" cy="180" r="11" fill="#fa709a"/>
  <!-- Address bar -->
  <rect x="90" y="20" width="152" height="20" rx="10" fill="#e4e4e4"/>
  <rect x="99" y="25" width="72" height="10" rx="5" fill="#d0d0d0"/>
  <!-- Content -->
  <rect x="90" y="56" width="132" height="7" rx="3.5" fill="#ddd"/>
  <rect x="90" y="70" width="148" height="5" rx="2.5" fill="#e5e5e5"/>
  <rect x="90" y="81" width="116" height="5" rx="2.5" fill="#e5e5e5"/>
  <rect x="90" y="92" width="140" height="5" rx="2.5" fill="#e5e5e5"/>
  <rect x="90" y="108" width="68" height="48" rx="6" fill="#e0e0e0"/>
  <rect x="90" y="166" width="148" height="5" rx="2.5" fill="#e5e5e5"/>
  <rect x="90" y="177" width="124" height="5" rx="2.5" fill="#e5e5e5"/>
  <rect x="90" y="188" width="140" height="5" rx="2.5" fill="#e5e5e5"/>
  <rect x="90" y="199" width="96" height="5" rx="2.5" fill="#e5e5e5"/>
  <rect x="90" y="210" width="116" height="5" rx="2.5" fill="#ebebeb"/>
  <rect x="90" y="221" width="76" height="5" rx="2.5" fill="#ebebeb"/>
  <!-- Border (最前面) -->
  <rect x="0.5" y="0.5" width="255" height="255" rx="39.5" fill="none" stroke="#cccccc" stroke-width="1"/>
</svg>
